<mxfile host="Electron" modified="2023-09-18T16:08:42.185Z" agent="Mozilla/5.0 (X11; Linux x86_64) AppleWebKit/537.36 (KHTML, like Gecko) draw.io/21.3.7 Chrome/112.0.5615.204 Electron/24.5.0 Safari/537.36" etag="9iPouGCIUl_BjkQl-4tC" version="21.3.7" type="device">
  <diagram name="Page-1" id="a7904f86-f2b4-8e86-fa97-74104820619b">
    <mxGraphModel dx="1504" dy="927" grid="1" gridSize="10" guides="1" tooltips="1" connect="1" arrows="1" fold="1" page="1" pageScale="1" pageWidth="1100" pageHeight="850" background="none" math="0" shadow="0">
      <root>
        <mxCell id="0" />
        <mxCell id="1" parent="0" />
        <mxCell id="fibPDg0DdbeTbY5Qs7bh-62" style="edgeStyle=orthogonalEdgeStyle;rounded=0;orthogonalLoop=1;jettySize=auto;html=1;" edge="1" parent="1" source="fibPDg0DdbeTbY5Qs7bh-48" target="fibPDg0DdbeTbY5Qs7bh-28">
          <mxGeometry relative="1" as="geometry" />
        </mxCell>
        <mxCell id="fibPDg0DdbeTbY5Qs7bh-48" value="" style="rounded=0;whiteSpace=wrap;html=1;" vertex="1" parent="1">
          <mxGeometry x="570" y="120" width="400" height="670" as="geometry" />
        </mxCell>
        <mxCell id="fibPDg0DdbeTbY5Qs7bh-55" style="edgeStyle=orthogonalEdgeStyle;rounded=0;orthogonalLoop=1;jettySize=auto;html=1;exitX=0;exitY=0.5;exitDx=0;exitDy=0;entryX=0;entryY=0.5;entryDx=0;entryDy=0;" edge="1" parent="1" source="fibPDg0DdbeTbY5Qs7bh-48" target="fibPDg0DdbeTbY5Qs7bh-35">
          <mxGeometry relative="1" as="geometry">
            <Array as="points">
              <mxPoint x="590" y="455" />
              <mxPoint x="590" y="275" />
            </Array>
          </mxGeometry>
        </mxCell>
        <mxCell id="fibPDg0DdbeTbY5Qs7bh-9" style="edgeStyle=orthogonalEdgeStyle;rounded=0;orthogonalLoop=1;jettySize=auto;html=1;" edge="1" parent="1" source="fibPDg0DdbeTbY5Qs7bh-1" target="fibPDg0DdbeTbY5Qs7bh-2">
          <mxGeometry relative="1" as="geometry" />
        </mxCell>
        <mxCell id="fibPDg0DdbeTbY5Qs7bh-1" value="Program entry point" style="rounded=0;whiteSpace=wrap;html=1;fillColor=#99FF99;" vertex="1" parent="1">
          <mxGeometry x="130" y="140" width="120" height="60" as="geometry" />
        </mxCell>
        <mxCell id="fibPDg0DdbeTbY5Qs7bh-6" style="edgeStyle=orthogonalEdgeStyle;rounded=0;orthogonalLoop=1;jettySize=auto;html=1;" edge="1" parent="1" source="fibPDg0DdbeTbY5Qs7bh-2" target="fibPDg0DdbeTbY5Qs7bh-3">
          <mxGeometry relative="1" as="geometry" />
        </mxCell>
        <mxCell id="fibPDg0DdbeTbY5Qs7bh-2" value="resolve the source and deploy directories, and the path to the main program" style="rounded=0;whiteSpace=wrap;html=1;" vertex="1" parent="1">
          <mxGeometry x="115" y="250" width="150" height="60" as="geometry" />
        </mxCell>
        <mxCell id="fibPDg0DdbeTbY5Qs7bh-7" style="edgeStyle=orthogonalEdgeStyle;rounded=0;orthogonalLoop=1;jettySize=auto;html=1;" edge="1" parent="1" source="fibPDg0DdbeTbY5Qs7bh-3" target="fibPDg0DdbeTbY5Qs7bh-5">
          <mxGeometry relative="1" as="geometry" />
        </mxCell>
        <mxCell id="fibPDg0DdbeTbY5Qs7bh-3" value="Scan through all removable media for one whose label contains the string &quot;VEX&quot; and mark tht as the folder to deploy to" style="rounded=0;whiteSpace=wrap;html=1;" vertex="1" parent="1">
          <mxGeometry x="130" y="360" width="120" height="120" as="geometry" />
        </mxCell>
        <mxCell id="fibPDg0DdbeTbY5Qs7bh-12" style="edgeStyle=orthogonalEdgeStyle;rounded=0;orthogonalLoop=1;jettySize=auto;html=1;entryX=0.5;entryY=0;entryDx=0;entryDy=0;" edge="1" parent="1" source="fibPDg0DdbeTbY5Qs7bh-4" target="fibPDg0DdbeTbY5Qs7bh-13">
          <mxGeometry relative="1" as="geometry">
            <mxPoint x="370" y="390" as="targetPoint" />
          </mxGeometry>
        </mxCell>
        <mxCell id="fibPDg0DdbeTbY5Qs7bh-4" value="Open the main program and parse it&#39;s imports, then follow those imports recursively using the dictionary of available modules from the last step. Ignore any&lt;br&gt;&amp;nbsp;imports that appear to be micropython builtins" style="rounded=0;whiteSpace=wrap;html=1;" vertex="1" parent="1">
          <mxGeometry x="310" y="190" width="170" height="150" as="geometry" />
        </mxCell>
        <mxCell id="fibPDg0DdbeTbY5Qs7bh-8" style="edgeStyle=orthogonalEdgeStyle;rounded=0;orthogonalLoop=1;jettySize=auto;html=1;entryX=0;entryY=0.5;entryDx=0;entryDy=0;" edge="1" parent="1" source="fibPDg0DdbeTbY5Qs7bh-5" target="fibPDg0DdbeTbY5Qs7bh-4">
          <mxGeometry relative="1" as="geometry">
            <mxPoint x="310" y="200" as="targetPoint" />
            <Array as="points">
              <mxPoint x="280" y="585" />
              <mxPoint x="280" y="265" />
            </Array>
          </mxGeometry>
        </mxCell>
        <mxCell id="fibPDg0DdbeTbY5Qs7bh-5" value="Open the source directory and find any .py file, add them all to a dictionary whose key is the module name and value is the path to the module" style="rounded=0;whiteSpace=wrap;html=1;" vertex="1" parent="1">
          <mxGeometry x="130" y="520" width="120" height="130" as="geometry" />
        </mxCell>
        <mxCell id="fibPDg0DdbeTbY5Qs7bh-14" style="edgeStyle=orthogonalEdgeStyle;rounded=0;orthogonalLoop=1;jettySize=auto;html=1;" edge="1" parent="1" source="fibPDg0DdbeTbY5Qs7bh-13" target="fibPDg0DdbeTbY5Qs7bh-48">
          <mxGeometry relative="1" as="geometry">
            <mxPoint x="530" y="260" as="targetPoint" />
          </mxGeometry>
        </mxCell>
        <mxCell id="fibPDg0DdbeTbY5Qs7bh-18" value="Yes" style="edgeLabel;html=1;align=center;verticalAlign=middle;resizable=0;points=[];" vertex="1" connectable="0" parent="fibPDg0DdbeTbY5Qs7bh-14">
          <mxGeometry x="-0.3636" y="-3" relative="1" as="geometry">
            <mxPoint x="-63" y="11" as="offset" />
          </mxGeometry>
        </mxCell>
        <mxCell id="fibPDg0DdbeTbY5Qs7bh-56" value="Yes" style="edgeLabel;html=1;align=center;verticalAlign=middle;resizable=0;points=[];" vertex="1" connectable="0" parent="fibPDg0DdbeTbY5Qs7bh-14">
          <mxGeometry x="-0.1536" y="1" relative="1" as="geometry">
            <mxPoint x="7" as="offset" />
          </mxGeometry>
        </mxCell>
        <mxCell id="fibPDg0DdbeTbY5Qs7bh-17" style="edgeStyle=orthogonalEdgeStyle;rounded=0;orthogonalLoop=1;jettySize=auto;html=1;entryX=0.5;entryY=0;entryDx=0;entryDy=0;" edge="1" parent="1" source="fibPDg0DdbeTbY5Qs7bh-13" target="fibPDg0DdbeTbY5Qs7bh-16">
          <mxGeometry relative="1" as="geometry" />
        </mxCell>
        <mxCell id="fibPDg0DdbeTbY5Qs7bh-19" value="No" style="edgeLabel;html=1;align=center;verticalAlign=middle;resizable=0;points=[];" vertex="1" connectable="0" parent="fibPDg0DdbeTbY5Qs7bh-17">
          <mxGeometry x="-0.2923" y="-1" relative="1" as="geometry">
            <mxPoint x="1" y="12" as="offset" />
          </mxGeometry>
        </mxCell>
        <mxCell id="fibPDg0DdbeTbY5Qs7bh-13" value="Found all required modules?" style="rhombus;whiteSpace=wrap;html=1;" vertex="1" parent="1">
          <mxGeometry x="335" y="395" width="120" height="120" as="geometry" />
        </mxCell>
        <mxCell id="fibPDg0DdbeTbY5Qs7bh-16" value="Exit and print failure message" style="rounded=0;whiteSpace=wrap;html=1;fillColor=#FF9999;" vertex="1" parent="1">
          <mxGeometry x="335" y="590" width="120" height="60" as="geometry" />
        </mxCell>
        <mxCell id="fibPDg0DdbeTbY5Qs7bh-58" style="edgeStyle=orthogonalEdgeStyle;rounded=0;orthogonalLoop=1;jettySize=auto;html=1;" edge="1" parent="1" source="fibPDg0DdbeTbY5Qs7bh-24" target="fibPDg0DdbeTbY5Qs7bh-57">
          <mxGeometry relative="1" as="geometry" />
        </mxCell>
        <mxCell id="fibPDg0DdbeTbY5Qs7bh-24" value="Copy file to root of sd card&amp;nbsp;" style="rounded=0;whiteSpace=wrap;html=1;" vertex="1" parent="1">
          <mxGeometry x="625" y="580" width="120" height="60" as="geometry" />
        </mxCell>
        <mxCell id="fibPDg0DdbeTbY5Qs7bh-28" value="Success" style="rounded=0;whiteSpace=wrap;html=1;fillColor=#99FF99;" vertex="1" parent="1">
          <mxGeometry x="710" y="850" width="120" height="60" as="geometry" />
        </mxCell>
        <mxCell id="fibPDg0DdbeTbY5Qs7bh-34" style="edgeStyle=orthogonalEdgeStyle;rounded=0;orthogonalLoop=1;jettySize=auto;html=1;" edge="1" parent="1" source="fibPDg0DdbeTbY5Qs7bh-31" target="fibPDg0DdbeTbY5Qs7bh-32">
          <mxGeometry relative="1" as="geometry" />
        </mxCell>
        <mxCell id="fibPDg0DdbeTbY5Qs7bh-31" value="Get checksum of local file" style="rounded=0;whiteSpace=wrap;html=1;" vertex="1" parent="1">
          <mxGeometry x="820" y="300" width="120" height="60" as="geometry" />
        </mxCell>
        <mxCell id="fibPDg0DdbeTbY5Qs7bh-41" style="edgeStyle=orthogonalEdgeStyle;rounded=0;orthogonalLoop=1;jettySize=auto;html=1;" edge="1" parent="1" source="fibPDg0DdbeTbY5Qs7bh-32" target="fibPDg0DdbeTbY5Qs7bh-40">
          <mxGeometry relative="1" as="geometry" />
        </mxCell>
        <mxCell id="fibPDg0DdbeTbY5Qs7bh-32" value="Get checksum of remote file" style="rounded=0;whiteSpace=wrap;html=1;" vertex="1" parent="1">
          <mxGeometry x="820" y="420" width="120" height="60" as="geometry" />
        </mxCell>
        <mxCell id="fibPDg0DdbeTbY5Qs7bh-36" style="edgeStyle=orthogonalEdgeStyle;rounded=0;orthogonalLoop=1;jettySize=auto;html=1;entryX=0.5;entryY=0;entryDx=0;entryDy=0;" edge="1" parent="1" source="fibPDg0DdbeTbY5Qs7bh-35" target="fibPDg0DdbeTbY5Qs7bh-31">
          <mxGeometry relative="1" as="geometry" />
        </mxCell>
        <mxCell id="fibPDg0DdbeTbY5Qs7bh-39" value="Yes" style="edgeLabel;html=1;align=center;verticalAlign=middle;resizable=0;points=[];" vertex="1" connectable="0" parent="fibPDg0DdbeTbY5Qs7bh-36">
          <mxGeometry x="-0.3514" y="-2" relative="1" as="geometry">
            <mxPoint y="-2" as="offset" />
          </mxGeometry>
        </mxCell>
        <mxCell id="fibPDg0DdbeTbY5Qs7bh-37" style="edgeStyle=orthogonalEdgeStyle;rounded=0;orthogonalLoop=1;jettySize=auto;html=1;entryX=0.5;entryY=0;entryDx=0;entryDy=0;" edge="1" parent="1" source="fibPDg0DdbeTbY5Qs7bh-35" target="fibPDg0DdbeTbY5Qs7bh-24">
          <mxGeometry relative="1" as="geometry" />
        </mxCell>
        <mxCell id="fibPDg0DdbeTbY5Qs7bh-38" value="No" style="edgeLabel;html=1;align=center;verticalAlign=middle;resizable=0;points=[];" vertex="1" connectable="0" parent="fibPDg0DdbeTbY5Qs7bh-37">
          <mxGeometry x="-0.2889" y="-2" relative="1" as="geometry">
            <mxPoint as="offset" />
          </mxGeometry>
        </mxCell>
        <mxCell id="fibPDg0DdbeTbY5Qs7bh-35" value="Does remote file exist?" style="rhombus;whiteSpace=wrap;html=1;" vertex="1" parent="1">
          <mxGeometry x="610" y="200" width="150" height="150" as="geometry" />
        </mxCell>
        <mxCell id="fibPDg0DdbeTbY5Qs7bh-44" style="edgeStyle=orthogonalEdgeStyle;rounded=0;orthogonalLoop=1;jettySize=auto;html=1;entryX=1;entryY=0.5;entryDx=0;entryDy=0;" edge="1" parent="1" source="fibPDg0DdbeTbY5Qs7bh-40" target="fibPDg0DdbeTbY5Qs7bh-24">
          <mxGeometry relative="1" as="geometry" />
        </mxCell>
        <mxCell id="fibPDg0DdbeTbY5Qs7bh-45" value="No" style="edgeLabel;html=1;align=center;verticalAlign=middle;resizable=0;points=[];" vertex="1" connectable="0" parent="fibPDg0DdbeTbY5Qs7bh-44">
          <mxGeometry x="-0.4308" relative="1" as="geometry">
            <mxPoint x="-2" as="offset" />
          </mxGeometry>
        </mxCell>
        <mxCell id="fibPDg0DdbeTbY5Qs7bh-59" style="edgeStyle=orthogonalEdgeStyle;rounded=0;orthogonalLoop=1;jettySize=auto;html=1;entryX=1;entryY=0.5;entryDx=0;entryDy=0;exitX=0.5;exitY=1;exitDx=0;exitDy=0;" edge="1" parent="1" source="fibPDg0DdbeTbY5Qs7bh-40" target="fibPDg0DdbeTbY5Qs7bh-57">
          <mxGeometry relative="1" as="geometry" />
        </mxCell>
        <mxCell id="fibPDg0DdbeTbY5Qs7bh-60" value="Yes" style="edgeLabel;html=1;align=center;verticalAlign=middle;resizable=0;points=[];" vertex="1" connectable="0" parent="fibPDg0DdbeTbY5Qs7bh-59">
          <mxGeometry x="0.0152" relative="1" as="geometry">
            <mxPoint x="49" y="-20" as="offset" />
          </mxGeometry>
        </mxCell>
        <mxCell id="fibPDg0DdbeTbY5Qs7bh-40" value="Local checksum == remote checksum?" style="rhombus;whiteSpace=wrap;html=1;" vertex="1" parent="1">
          <mxGeometry x="810" y="540" width="140" height="140" as="geometry" />
        </mxCell>
        <mxCell id="fibPDg0DdbeTbY5Qs7bh-49" value="&lt;font style=&quot;font-size: 18px;&quot;&gt;For file in [required modules and files in the &quot;deploy&quot; directory]&lt;/font&gt;" style="text;html=1;strokeColor=none;fillColor=none;align=center;verticalAlign=middle;whiteSpace=wrap;rounded=0;" vertex="1" parent="1">
          <mxGeometry x="570" y="120" width="400" height="60" as="geometry" />
        </mxCell>
        <mxCell id="fibPDg0DdbeTbY5Qs7bh-61" style="edgeStyle=orthogonalEdgeStyle;rounded=0;orthogonalLoop=1;jettySize=auto;html=1;" edge="1" parent="1" source="fibPDg0DdbeTbY5Qs7bh-57">
          <mxGeometry relative="1" as="geometry">
            <mxPoint x="590" y="455" as="targetPoint" />
          </mxGeometry>
        </mxCell>
        <mxCell id="fibPDg0DdbeTbY5Qs7bh-63" style="edgeStyle=orthogonalEdgeStyle;rounded=0;orthogonalLoop=1;jettySize=auto;html=1;entryX=0.5;entryY=1;entryDx=0;entryDy=0;" edge="1" parent="1" source="fibPDg0DdbeTbY5Qs7bh-57" target="fibPDg0DdbeTbY5Qs7bh-48">
          <mxGeometry relative="1" as="geometry">
            <Array as="points">
              <mxPoint x="685" y="770" />
              <mxPoint x="770" y="770" />
            </Array>
          </mxGeometry>
        </mxCell>
        <mxCell id="fibPDg0DdbeTbY5Qs7bh-57" value="Next loop iteration or exit if loop complete" style="rounded=0;whiteSpace=wrap;html=1;fillColor=#FFFF99;" vertex="1" parent="1">
          <mxGeometry x="625" y="690" width="120" height="60" as="geometry" />
        </mxCell>
      </root>
    </mxGraphModel>
  </diagram>
</mxfile>
